<svg aria-hidden="true" style="position: absolute; width: 0; height: 0; overflow: hidden;" version="1.1" xmlns="http://www.w3.org/2000/svg" xmlns:xlink="http://www.w3.org/1999/xlink">
<defs>
<symbol id="icon-download" viewBox="0 0 20 20">
<path d="M13 8v-6h-6v6h-5l8 8 8-8h-5zM0 18h20v2h-20v-2z"></path>
</symbol>
<symbol id="icon-wheelchair-alt" viewBox="0 0 24 28">
<path d="M22.469 12.703c0.328 0.344 0.5 0.812 0.453 1.281l-0.688 8.609c-0.078 0.875-0.797 1.531-1.656 1.531-0.047 0-0.094 0-0.141-0.016-0.922-0.063-1.594-0.875-1.531-1.781l0.547-6.703-2.234 0.125c0.547 1.125 0.859 2.406 0.859 3.75 0 2.25-0.875 4.297-2.312 5.812l-2.141-2.141c0.875-0.969 1.422-2.266 1.422-3.672 0-3.031-2.453-5.484-5.469-5.484-1.422 0-2.703 0.547-3.687 1.437l-2.141-2.156c1.203-1.141 2.734-1.922 4.438-2.203l4.125-4.688-2.328-1.359-2.828 2.516c-0.688 0.625-1.734 0.562-2.344-0.125s-0.547-1.734 0.125-2.344l3.734-3.328c0.531-0.484 1.313-0.562 1.937-0.187 7.609 4.422 7.625 4.422 7.625 4.422 0.406 0.234 0.641 0.641 0.75 1.062 0.156 0.609 0.047 1.297-0.406 1.828l-3.203 3.625 5.797-0.313c0.484-0.031 0.953 0.141 1.297 0.5zM19.375 5.563c-1.531 0-2.781-1.234-2.781-2.781 0-1.531 1.25-2.781 2.781-2.781 1.547 0 2.797 1.25 2.797 2.781 0 1.547-1.25 2.781-2.797 2.781zM9.578 24.969c1.125 0 2.188-0.359 3.063-0.953l2.172 2.172c-1.437 1.141-3.266 1.813-5.234 1.813-4.703 0-8.516-3.813-8.516-8.5 0-1.984 0.672-3.797 1.813-5.25l2.172 2.172c-0.594 0.875-0.938 1.937-0.938 3.078 0 3.016 2.453 5.469 5.469 5.469z"></path>
</symbol>
<symbol id="icon-github" viewBox="0 0 32 32">
<path d="M16 0.395c-8.836 0-16 7.163-16 16 0 7.069 4.585 13.067 10.942 15.182 0.8 0.148 1.094-0.347 1.094-0.77 0-0.381-0.015-1.642-0.022-2.979-4.452 0.968-5.391-1.888-5.391-1.888-0.728-1.849-1.776-2.341-1.776-2.341-1.452-0.993 0.11-0.973 0.11-0.973 1.606 0.113 2.452 1.649 2.452 1.649 1.427 2.446 3.743 1.739 4.656 1.33 0.143-1.034 0.558-1.74 1.016-2.14-3.554-0.404-7.29-1.777-7.29-7.907 0-1.747 0.625-3.174 1.649-4.295-0.166-0.403-0.714-2.030 0.155-4.234 0 0 1.344-0.43 4.401 1.64 1.276-0.355 2.645-0.532 4.005-0.539 1.359 0.006 2.729 0.184 4.008 0.539 3.054-2.070 4.395-1.64 4.395-1.64 0.871 2.204 0.323 3.831 0.157 4.234 1.026 1.12 1.647 2.548 1.647 4.295 0 6.145-3.743 7.498-7.306 7.895 0.574 0.497 1.085 1.47 1.085 2.963 0 2.141-0.019 3.864-0.019 4.391 0 0.426 0.288 0.925 1.099 0.768 6.354-2.118 10.933-8.113 10.933-15.18 0-8.837-7.164-16-16-16z"></path>
</symbol>
<symbol id="icon-html-five" viewBox="0 0 32 32">
<path d="M1.892 0l2.567 28.801 11.524 3.199 11.554-3.204 2.572-28.796h-28.216zM24.52 9.42h-13.517l0.322 3.617h12.874l-0.97 10.844-7.245 2.008-7.237-2.008-0.495-5.547h3.547l0.252 2.82 3.933 1.060 0.009-0.002 3.935-1.062 0.408-4.58h-12.242l-0.953-10.681h17.694l-0.316 3.532z"></path>
</symbol>
<symbol id="icon-css3" viewBox="0 0 32 32">
<path d="M4.762 1.516l-1.074 5.373h21.867l-0.684 3.47h-21.881l-1.059 5.372h21.865l-1.219 6.127-8.813 2.919-7.638-2.919 0.523-2.658h-5.372l-1.278 6.448 12.632 4.834 14.563-4.834 4.805-24.133z"></path>
</symbol>
<symbol id="icon-git" viewBox="0 0 32 32">
<path d="M31.397 14.575l-13.972-13.971c-0.804-0.805-2.109-0.805-2.915 0l-3.246 3.246 2.443 2.443c0.392-0.187 0.83-0.293 1.293-0.293 1.657 0 3 1.343 3 3 0 0.463-0.105 0.902-0.293 1.293l3.999 3.999c0.392-0.187 0.83-0.293 1.293-0.293 1.657 0 3 1.343 3 3s-1.343 3-3 3-3-1.343-3-3c0-0.463 0.105-0.902 0.293-1.293l-3.999-3.999c-0.095 0.046-0.193 0.086-0.293 0.121v8.343c1.165 0.412 2 1.522 2 2.829 0 1.657-1.343 3-3 3s-3-1.343-3-3c0-1.306 0.835-2.417 2-2.829v-8.343c-1.165-0.412-2-1.522-2-2.829 0-0.463 0.105-0.902 0.293-1.293l-2.443-2.443-9.247 9.246c-0.805 0.806-0.805 2.11 0 2.915l13.973 13.971c0.804 0.805 2.109 0.805 2.915 0l13.906-13.906c0.805-0.805 0.805-2.111-0-2.915z"></path>
</symbol>
</defs>
</svg>
